<svg width="9" height="16" viewBox="0 0 9 16" fill="none" xmlns="http://www.w3.org/2000/svg">
<path d="M2.34689 8.00544L8.67703 14.207C8.89234 14.418 8.99641 14.6641 8.98923 14.9453C8.98206 15.2266 8.87081 15.4727 8.6555 15.6836C8.44019 15.8945 8.189 16 7.90191 16C7.61483 16 7.36364 15.8945 7.14833 15.6836L0.516746 9.20779C0.344498 9.03904 0.215311 8.8492 0.129187 8.63826C0.0430622 8.42732 0 8.21638 0 8.00544C0 7.79451 0.0430622 7.58357 0.129187 7.37263C0.215311 7.16169 0.344498 6.97185 0.516746 6.8031L7.14833 0.306201C7.36364 0.0952624 7.61842 -0.00669105 7.91268 0.000340223C8.20694 0.0073715 8.46172 0.116356 8.67703 0.327294C8.89234 0.538233 9 0.784327 9 1.06558C9 1.34683 8.89234 1.59292 8.67703 1.80386L2.34689 8.00544Z" fill="#1D1D1D"/>
</svg>
