<svg width="15" height="15" viewBox="0 0 15 15" fill="none" xmlns="http://www.w3.org/2000/svg">
<path d="M6.17423 8.14767H1.24124C0.961701 8.14767 0.727384 8.05312 0.538286 7.86402C0.349188 7.67492 0.254639 7.4406 0.254639 7.16107C0.254639 6.88153 0.349188 6.64722 0.538286 6.45812C0.727384 6.26902 0.961701 6.17447 1.24124 6.17447H6.17423V1.24148C6.17423 0.961945 6.26878 0.727628 6.45787 0.53853C6.64697 0.349432 6.88129 0.254883 7.16082 0.254883C7.44036 0.254883 7.67468 0.349432 7.86378 0.53853C8.05287 0.727628 8.14742 0.961945 8.14742 1.24148V6.17447H13.0804C13.3599 6.17447 13.5943 6.26902 13.7834 6.45812C13.9725 6.64722 14.067 6.88153 14.067 7.16107C14.067 7.4406 13.9725 7.67492 13.7834 7.86402C13.5943 8.05312 13.3599 8.14767 13.0804 8.14767H8.14742V13.0807C8.14742 13.3602 8.05287 13.5945 7.86378 13.7836C7.67468 13.9727 7.44036 14.0673 7.16082 14.0673C6.88129 14.0673 6.64697 13.9727 6.45787 13.7836C6.26878 13.5945 6.17423 13.3602 6.17423 13.0807V8.14767Z" fill="#1D1D1D"/>
</svg>
